<svg width="1260" height="720" viewBox="0 0 1260 720" fill="none" xmlns="http://www.w3.org/2000/svg">
<rect width="1260" height="720" rx="32" fill="white"/>
<rect width="1260" height="720" fill="#070707"/>
<g filter="url(#filter0_d_1197:868)">
<path d="M531.674 325.286L619.808 172.681C624.185 165.103 635.125 165.107 639.496 172.689L661.72 211.239C663.661 214.605 663.747 218.73 661.949 222.175L602.404 336.229C600.445 339.982 596.563 342.334 592.33 342.334H541.515C532.766 342.334 527.298 332.862 531.674 325.286Z" fill="url(#paint0_linear_1197:868)" fill-opacity="0.7"/>
<path d="M770.674 399.972L681.689 245.819C677.204 238.049 665.907 238.296 661.765 246.254L637.949 292.02C636.156 295.465 636.247 299.588 638.189 302.951L700.791 411.337C702.821 414.853 706.573 417.018 710.632 417.018H760.832C769.58 417.018 775.048 407.548 770.674 399.972Z" fill="url(#paint1_linear_1197:868)" fill-opacity="0.7"/>
<path d="M498.119 417.263L671.757 417.263C680.546 417.263 686.009 407.713 681.553 400.137L657.179 358.693C655.134 355.216 651.399 353.083 647.365 353.089L522.007 353.283C517.959 353.29 514.22 355.448 512.191 358.95L488.286 400.2C483.895 407.776 489.362 417.263 498.119 417.263Z" fill="url(#paint2_linear_1197:868)" fill-opacity="0.7"/>
</g>
<path d="M303.124 437.714L317.808 397.562H326.068L340.752 437.714H332.951L329.739 428.422H314.08L310.81 437.714H303.124ZM316.087 422.686H327.732L321.881 405.994L316.087 422.686ZM344.892 450.334V409.263H351.431L352.234 413.336C353.152 412.074 354.357 410.965 355.848 410.009C357.378 409.053 359.347 408.575 361.756 408.575C364.433 408.575 366.823 409.225 368.926 410.525C371.029 411.826 372.693 413.604 373.917 415.86C375.14 418.116 375.752 420.678 375.752 423.546C375.752 426.414 375.14 428.976 373.917 431.233C372.693 433.45 371.029 435.21 368.926 436.51C366.823 437.772 364.433 438.403 361.756 438.403C359.615 438.403 357.741 438.001 356.135 437.198C354.529 436.395 353.229 435.267 352.234 433.814V450.334H344.892ZM360.207 431.978C362.54 431.978 364.471 431.194 366.001 429.626C367.53 428.059 368.295 426.032 368.295 423.546C368.295 421.061 367.53 419.015 366.001 417.409C364.471 415.803 362.54 415 360.207 415C357.837 415 355.886 415.803 354.357 417.409C352.865 418.977 352.12 421.003 352.12 423.489C352.12 425.975 352.865 428.02 354.357 429.626C355.886 431.194 357.837 431.978 360.207 431.978ZM381.451 437.714V409.263H387.99L388.678 414.598C389.71 412.762 391.106 411.309 392.865 410.239C394.663 409.13 396.766 408.575 399.175 408.575V416.319H397.11C395.504 416.319 394.07 416.567 392.808 417.064C391.546 417.562 390.552 418.422 389.825 419.646C389.137 420.869 388.793 422.571 388.793 424.751V437.714H381.451ZM416.652 438.403C413.784 438.403 411.241 437.791 409.024 436.567C406.806 435.343 405.066 433.623 403.804 431.405C402.542 429.187 401.911 426.625 401.911 423.718C401.911 420.774 402.523 418.154 403.746 415.86C405.008 413.566 406.729 411.787 408.909 410.525C411.127 409.225 413.727 408.575 416.71 408.575C419.501 408.575 421.968 409.187 424.109 410.411C426.251 411.634 427.914 413.317 429.1 415.458C430.323 417.562 430.935 419.913 430.935 422.514C430.935 422.934 430.916 423.374 430.878 423.833C430.878 424.292 430.859 424.77 430.821 425.267H409.196C409.349 427.485 410.113 429.225 411.49 430.487C412.905 431.749 414.607 432.38 416.595 432.38C418.086 432.38 419.329 432.055 420.324 431.405C421.356 430.716 422.121 429.837 422.618 428.766H430.075C429.539 430.563 428.641 432.208 427.379 433.699C426.155 435.152 424.626 436.299 422.79 437.141C420.993 437.982 418.947 438.403 416.652 438.403ZM416.71 414.541C414.913 414.541 413.326 415.057 411.949 416.089C410.572 417.084 409.693 418.613 409.31 420.678H423.478C423.364 418.804 422.675 417.313 421.413 416.204C420.151 415.095 418.584 414.541 416.71 414.541ZM436.25 437.714V409.263H442.732L443.305 414.082C444.185 412.399 445.447 411.061 447.091 410.067C448.774 409.072 450.743 408.575 452.999 408.575C456.517 408.575 459.252 409.684 461.202 411.902C463.152 414.12 464.127 417.37 464.127 421.653V437.714H456.785V422.342C456.785 419.894 456.288 418.021 455.294 416.72C454.299 415.42 452.751 414.77 450.648 414.77C448.583 414.77 446.881 415.497 445.542 416.95C444.242 418.403 443.592 420.43 443.592 423.03V437.714H436.25ZM483.366 438.403C480.689 438.403 478.299 437.753 476.196 436.452C474.093 435.152 472.429 433.374 471.205 431.118C469.982 428.862 469.37 426.3 469.37 423.432C469.37 420.563 469.982 418.021 471.205 415.803C472.429 413.546 474.093 411.787 476.196 410.525C478.299 409.225 480.689 408.575 483.366 408.575C485.507 408.575 487.381 408.977 488.987 409.78C490.593 410.583 491.894 411.711 492.888 413.164V396.415H500.23V437.714H493.691L492.888 433.642C491.97 434.904 490.746 436.013 489.217 436.969C487.725 437.925 485.775 438.403 483.366 438.403ZM484.915 431.978C487.286 431.978 489.217 431.194 490.708 429.626C492.238 428.02 493.002 425.975 493.002 423.489C493.002 421.003 492.238 418.977 490.708 417.409C489.217 415.803 487.286 415 484.915 415C482.582 415 480.651 415.783 479.121 417.351C477.592 418.919 476.827 420.946 476.827 423.432C476.827 425.917 477.592 427.963 479.121 429.569C480.651 431.175 482.582 431.978 484.915 431.978ZM516.655 438.403C514.207 438.403 512.2 438.02 510.632 437.255C509.064 436.452 507.898 435.401 507.133 434.101C506.368 432.8 505.986 431.366 505.986 429.799C505.986 427.16 507.018 425.018 509.083 423.374C511.148 421.73 514.246 420.908 518.376 420.908H525.603V420.219C525.603 418.269 525.048 416.835 523.94 415.917C522.831 415 521.454 414.541 519.81 414.541C518.318 414.541 517.018 414.904 515.909 415.63C514.8 416.319 514.112 417.351 513.844 418.728H506.674C506.865 416.663 507.554 414.866 508.739 413.336C509.963 411.806 511.531 410.64 513.443 409.837C515.355 408.996 517.496 408.575 519.867 408.575C523.92 408.575 527.113 409.589 529.446 411.615C531.779 413.642 532.945 416.51 532.945 420.219V437.714H526.693L526.005 433.125C525.163 434.655 523.978 435.917 522.448 436.911C520.957 437.905 519.026 438.403 516.655 438.403ZM518.318 432.667C520.421 432.667 522.047 431.978 523.194 430.602C524.379 429.225 525.125 427.523 525.431 425.496H519.179C517.228 425.496 515.833 425.86 514.991 426.586C514.15 427.275 513.729 428.135 513.729 429.168C513.729 430.277 514.15 431.137 514.991 431.749C515.833 432.361 516.942 432.667 518.318 432.667ZM562.568 438.403C559.011 438.403 556.258 437.294 554.308 435.076C552.396 432.858 551.44 429.607 551.44 425.324V409.263H558.725V424.636C558.725 427.083 559.222 428.957 560.216 430.257C561.21 431.558 562.778 432.208 564.92 432.208C566.946 432.208 568.61 431.481 569.91 430.028C571.248 428.575 571.918 426.548 571.918 423.948V409.263H579.26V437.714H572.778L572.204 432.896C571.325 434.579 570.044 435.917 568.361 436.911C566.717 437.905 564.786 438.403 562.568 438.403ZM585.936 437.714V409.263H592.418L593.049 413.107C593.967 411.73 595.171 410.64 596.663 409.837C598.192 408.996 599.952 408.575 601.94 408.575C606.338 408.575 609.454 410.277 611.29 413.68C612.322 412.112 613.699 410.87 615.42 409.952C617.179 409.034 619.091 408.575 621.156 408.575C624.865 408.575 627.714 409.684 629.703 411.902C631.691 414.12 632.685 417.37 632.685 421.653V437.714H625.343V422.342C625.343 419.894 624.865 418.021 623.909 416.72C622.991 415.42 621.557 414.77 619.607 414.77C617.619 414.77 616.012 415.497 614.789 416.95C613.603 418.403 613.011 420.43 613.011 423.03V437.714H605.668V422.342C605.668 419.894 605.19 418.021 604.234 416.72C603.278 415.42 601.806 414.77 599.818 414.77C597.867 414.77 596.28 415.497 595.057 416.95C593.871 418.403 593.279 420.43 593.279 423.03V437.714H585.936ZM648.604 438.403C646.157 438.403 644.149 438.02 642.581 437.255C641.013 436.452 639.847 435.401 639.082 434.101C638.317 432.8 637.935 431.366 637.935 429.799C637.935 427.16 638.968 425.018 641.033 423.374C643.098 421.73 646.195 420.908 650.325 420.908H657.552V420.219C657.552 418.269 656.998 416.835 655.889 415.917C654.78 415 653.403 414.541 651.759 414.541C650.268 414.541 648.967 414.904 647.858 415.63C646.749 416.319 646.061 417.351 645.793 418.728H638.623C638.815 416.663 639.503 414.866 640.688 413.336C641.912 411.806 643.48 410.64 645.392 409.837C647.304 408.996 649.445 408.575 651.816 408.575C655.87 408.575 659.063 409.589 661.396 411.615C663.728 413.642 664.895 416.51 664.895 420.219V437.714H658.642L657.954 433.125C657.113 434.655 655.927 435.917 654.398 436.911C652.906 437.905 650.975 438.403 648.604 438.403ZM650.268 432.667C652.371 432.667 653.996 431.978 655.143 430.602C656.329 429.225 657.074 427.523 657.38 425.496H651.128C649.178 425.496 647.782 425.86 646.941 426.586C646.099 427.275 645.679 428.135 645.679 429.168C645.679 430.277 646.099 431.137 646.941 431.749C647.782 432.361 648.891 432.667 650.268 432.667ZM683.848 437.714V396.415H691.19V437.714H683.848ZM701.79 404.847C700.452 404.847 699.343 404.445 698.463 403.642C697.622 402.839 697.201 401.826 697.201 400.602C697.201 399.378 697.622 398.384 698.463 397.619C699.343 396.816 700.452 396.415 701.79 396.415C703.128 396.415 704.218 396.816 705.06 397.619C705.939 398.384 706.379 399.378 706.379 400.602C706.379 401.826 705.939 402.839 705.06 403.642C704.218 404.445 703.128 404.847 701.79 404.847ZM698.119 437.714V409.263H705.461V437.714H698.119ZM712.264 437.714V409.263H718.746L719.319 414.082C720.199 412.399 721.461 411.061 723.105 410.067C724.788 409.072 726.757 408.575 729.013 408.575C732.531 408.575 735.266 409.684 737.216 411.902C739.166 414.12 740.141 417.37 740.141 421.653V437.714H732.799V422.342C732.799 419.894 732.302 418.021 731.308 416.72C730.314 415.42 728.765 414.77 726.662 414.77C724.597 414.77 722.895 415.497 721.556 416.95C720.256 418.403 719.606 420.43 719.606 423.03V437.714H712.264ZM758.347 429.225C756.971 429.225 755.69 429.072 754.504 428.766L752.382 430.888C753.032 431.233 753.912 431.519 755.02 431.749C756.129 431.978 757.927 432.208 760.412 432.437C764.198 432.781 766.951 433.68 768.672 435.133C770.393 436.586 771.254 438.594 771.254 441.156C771.254 442.839 770.795 444.425 769.877 445.917C768.959 447.446 767.544 448.67 765.632 449.588C763.72 450.544 761.273 451.022 758.29 451.022C754.237 451.022 750.967 450.257 748.481 448.728C745.996 447.236 744.753 444.98 744.753 441.959C744.753 439.397 745.996 437.179 748.481 435.305C747.717 434.961 747.047 434.598 746.474 434.215C745.938 433.833 745.46 433.431 745.04 433.011V431.691L750.03 426.414C747.812 424.464 746.703 421.959 746.703 418.9C746.703 416.988 747.162 415.248 748.08 413.68C749.036 412.112 750.374 410.87 752.095 409.952C753.816 409.034 755.9 408.575 758.347 408.575C759.953 408.575 761.445 408.805 762.822 409.263H773.605V413.738L768.73 414.082C769.494 415.535 769.877 417.141 769.877 418.9C769.877 420.812 769.418 422.552 768.5 424.12C767.582 425.688 766.244 426.931 764.485 427.848C762.764 428.766 760.718 429.225 758.347 429.225ZM758.347 423.604C759.839 423.604 761.062 423.202 762.018 422.399C763.013 421.596 763.51 420.449 763.51 418.957C763.51 417.466 763.013 416.319 762.018 415.516C761.062 414.713 759.839 414.311 758.347 414.311C756.78 414.311 755.518 414.713 754.562 415.516C753.606 416.319 753.128 417.466 753.128 418.957C753.128 420.449 753.606 421.596 754.562 422.399C755.518 423.202 756.78 423.604 758.347 423.604ZM751.464 441.213C751.464 442.628 752.114 443.68 753.414 444.368C754.753 445.095 756.378 445.458 758.29 445.458C760.126 445.458 761.617 445.076 762.764 444.311C763.911 443.584 764.485 442.59 764.485 441.328C764.485 440.296 764.103 439.435 763.338 438.747C762.611 438.058 761.139 437.638 758.921 437.485C757.353 437.37 755.9 437.198 754.562 436.969C753.453 437.58 752.65 438.25 752.152 438.976C751.694 439.703 751.464 440.448 751.464 441.213ZM788.768 438.403C785.211 438.403 782.458 437.294 780.508 435.076C778.596 432.858 777.64 429.607 777.64 425.324V409.263H784.925V424.636C784.925 427.083 785.422 428.957 786.416 430.257C787.41 431.558 788.978 432.208 791.12 432.208C793.146 432.208 794.81 431.481 796.11 430.028C797.448 428.575 798.118 426.548 798.118 423.948V409.263H805.46V437.714H798.978L798.404 432.896C797.525 434.579 796.244 435.917 794.561 436.911C792.917 437.905 790.986 438.403 788.768 438.403ZM821.945 438.403C819.498 438.403 817.49 438.02 815.922 437.255C814.354 436.452 813.188 435.401 812.423 434.101C811.658 432.8 811.276 431.366 811.276 429.799C811.276 427.16 812.308 425.018 814.373 423.374C816.438 421.73 819.536 420.908 823.666 420.908H830.893V420.219C830.893 418.269 830.339 416.835 829.23 415.917C828.121 415 826.744 414.541 825.1 414.541C823.609 414.541 822.308 414.904 821.199 415.63C820.09 416.319 819.402 417.351 819.134 418.728H811.964C812.156 416.663 812.844 414.866 814.029 413.336C815.253 411.806 816.821 410.64 818.733 409.837C820.645 408.996 822.786 408.575 825.157 408.575C829.211 408.575 832.404 409.589 834.736 411.615C837.069 413.642 838.235 416.51 838.235 420.219V437.714H831.983L831.295 433.125C830.454 434.655 829.268 435.917 827.738 436.911C826.247 437.905 824.316 438.403 821.945 438.403ZM823.609 432.667C825.712 432.667 827.337 431.978 828.484 430.602C829.67 429.225 830.415 427.523 830.721 425.496H824.469C822.519 425.496 821.123 425.86 820.282 426.586C819.44 427.275 819.02 428.135 819.02 429.168C819.02 430.277 819.44 431.137 820.282 431.749C821.123 432.361 822.232 432.667 823.609 432.667ZM856.427 429.225C855.051 429.225 853.77 429.072 852.584 428.766L850.462 430.888C851.112 431.233 851.991 431.519 853.1 431.749C854.209 431.978 856.007 432.208 858.492 432.437C862.278 432.781 865.031 433.68 866.752 435.133C868.473 436.586 869.333 438.594 869.333 441.156C869.333 442.839 868.874 444.425 867.957 445.917C867.039 447.446 865.624 448.67 863.712 449.588C861.8 450.544 859.353 451.022 856.37 451.022C852.316 451.022 849.047 450.257 846.561 448.728C844.076 447.236 842.833 444.98 842.833 441.959C842.833 439.397 844.076 437.179 846.561 435.305C845.796 434.961 845.127 434.598 844.554 434.215C844.018 433.833 843.54 433.431 843.12 433.011V431.691L848.11 426.414C845.892 424.464 844.783 421.959 844.783 418.9C844.783 416.988 845.242 415.248 846.16 413.68C847.116 412.112 848.454 410.87 850.175 409.952C851.896 409.034 853.98 408.575 856.427 408.575C858.033 408.575 859.525 408.805 860.901 409.263H871.685V413.738L866.809 414.082C867.574 415.535 867.957 417.141 867.957 418.9C867.957 420.812 867.498 422.552 866.58 424.12C865.662 425.688 864.324 426.931 862.565 427.848C860.844 428.766 858.798 429.225 856.427 429.225ZM856.427 423.604C857.919 423.604 859.142 423.202 860.098 422.399C861.093 421.596 861.59 420.449 861.59 418.957C861.59 417.466 861.093 416.319 860.098 415.516C859.142 414.713 857.919 414.311 856.427 414.311C854.859 414.311 853.597 414.713 852.641 415.516C851.685 416.319 851.207 417.466 851.207 418.957C851.207 420.449 851.685 421.596 852.641 422.399C853.597 423.202 854.859 423.604 856.427 423.604ZM849.544 441.213C849.544 442.628 850.194 443.68 851.494 444.368C852.833 445.095 854.458 445.458 856.37 445.458C858.205 445.458 859.697 445.076 860.844 444.311C861.991 443.584 862.565 442.59 862.565 441.328C862.565 440.296 862.182 439.435 861.418 438.747C860.691 438.058 859.219 437.638 857.001 437.485C855.433 437.37 853.98 437.198 852.641 436.969C851.532 437.58 850.729 438.25 850.232 438.976C849.773 439.703 849.544 440.448 849.544 441.213ZM888.882 438.403C886.014 438.403 883.471 437.791 881.253 436.567C879.035 435.343 877.295 433.623 876.033 431.405C874.771 429.187 874.14 426.625 874.14 423.718C874.14 420.774 874.752 418.154 875.976 415.86C877.238 413.566 878.959 411.787 881.138 410.525C883.356 409.225 885.957 408.575 888.939 408.575C891.731 408.575 894.197 409.187 896.339 410.411C898.48 411.634 900.144 413.317 901.329 415.458C902.553 417.562 903.165 419.913 903.165 422.514C903.165 422.934 903.146 423.374 903.107 423.833C903.107 424.292 903.088 424.77 903.05 425.267H881.425C881.578 427.485 882.343 429.225 883.72 430.487C885.134 431.749 886.836 432.38 888.825 432.38C890.316 432.38 891.559 432.055 892.553 431.405C893.586 430.716 894.35 429.837 894.848 428.766H902.304C901.769 430.563 900.87 432.208 899.608 433.699C898.385 435.152 896.855 436.299 895.02 437.141C893.222 437.982 891.176 438.403 888.882 438.403ZM888.939 414.541C887.142 414.541 885.555 415.057 884.178 416.089C882.802 417.084 881.922 418.613 881.54 420.678H895.708C895.593 418.804 894.905 417.313 893.643 416.204C892.381 415.095 890.813 414.541 888.939 414.541ZM908.48 437.714V409.263H914.961L915.592 413.107C916.51 411.73 917.715 410.64 919.206 409.837C920.736 408.996 922.495 408.575 924.483 408.575C928.881 408.575 931.997 410.277 933.833 413.68C934.866 412.112 936.242 410.87 937.963 409.952C939.722 409.034 941.634 408.575 943.699 408.575C947.408 408.575 950.257 409.684 952.246 411.902C954.234 414.12 955.228 417.37 955.228 421.653V437.714H947.886V422.342C947.886 419.894 947.408 418.021 946.452 416.72C945.535 415.42 944.101 414.77 942.15 414.77C940.162 414.77 938.556 415.497 937.332 416.95C936.147 418.403 935.554 420.43 935.554 423.03V437.714H928.212V422.342C928.212 419.894 927.734 418.021 926.778 416.72C925.822 415.42 924.349 414.77 922.361 414.77C920.411 414.77 918.824 415.497 917.6 416.95C916.415 418.403 915.822 420.43 915.822 423.03V437.714H908.48ZM527.978 513.403C525.11 513.403 522.567 512.791 520.349 511.567C518.131 510.343 516.391 508.623 515.129 506.405C513.867 504.187 513.236 501.625 513.236 498.718C513.236 495.774 513.848 493.154 515.072 490.86C516.334 488.566 518.054 486.787 520.234 485.525C522.452 484.225 525.052 483.575 528.035 483.575C530.827 483.575 533.293 484.187 535.435 485.411C537.576 486.634 539.24 488.317 540.425 490.458C541.649 492.562 542.261 494.913 542.261 497.514C542.261 497.934 542.242 498.374 542.203 498.833C542.203 499.292 542.184 499.77 542.146 500.267H520.521C520.674 502.485 521.439 504.225 522.815 505.487C524.23 506.749 525.932 507.38 527.921 507.38C529.412 507.38 530.655 507.055 531.649 506.405C532.681 505.716 533.446 504.837 533.943 503.766H541.4C540.865 505.563 539.966 507.208 538.704 508.699C537.481 510.152 535.951 511.299 534.115 512.141C532.318 512.982 530.272 513.403 527.978 513.403ZM528.035 489.541C526.238 489.541 524.651 490.057 523.274 491.089C521.898 492.084 521.018 493.613 520.636 495.678H534.804C534.689 493.804 534.001 492.313 532.739 491.204C531.477 490.095 529.909 489.541 528.035 489.541ZM561.702 512.714V490.401H557.802V484.263H561.702V480.937C561.702 477.495 562.563 475.048 564.283 473.594C566.043 472.141 568.413 471.415 571.396 471.415H574.551V477.667H572.543C571.281 477.667 570.383 477.916 569.847 478.413C569.312 478.91 569.044 479.751 569.044 480.937V484.263H575.182V490.401H569.044V512.714H561.702ZM592.668 513.403C589.915 513.403 587.429 512.772 585.211 511.51C583.031 510.248 581.291 508.508 579.991 506.29C578.729 504.034 578.098 501.433 578.098 498.489C578.098 495.544 578.749 492.963 580.049 490.745C581.349 488.489 583.089 486.73 585.268 485.468C587.486 484.206 589.972 483.575 592.725 483.575C595.44 483.575 597.888 484.206 600.068 485.468C602.285 486.73 604.025 488.489 605.287 490.745C606.587 492.963 607.238 495.544 607.238 498.489C607.238 501.433 606.587 504.034 605.287 506.29C604.025 508.508 602.285 510.248 600.068 511.51C597.85 512.772 595.383 513.403 592.668 513.403ZM592.668 507.036C594.58 507.036 596.243 506.328 597.658 504.913C599.073 503.46 599.781 501.319 599.781 498.489C599.781 495.659 599.073 493.537 597.658 492.122C596.243 490.669 594.599 489.942 592.725 489.942C590.775 489.942 589.093 490.669 587.678 492.122C586.301 493.537 585.613 495.659 585.613 498.489C585.613 501.319 586.301 503.46 587.678 504.913C589.093 506.328 590.756 507.036 592.668 507.036ZM626.88 513.403C623.974 513.403 621.412 512.772 619.194 511.51C616.976 510.248 615.217 508.489 613.917 506.233C612.655 503.976 612.024 501.395 612.024 498.489C612.024 495.583 612.655 493.001 613.917 490.745C615.217 488.489 616.976 486.73 619.194 485.468C621.412 484.206 623.974 483.575 626.88 483.575C630.513 483.575 633.572 484.531 636.058 486.443C638.544 488.317 640.131 490.917 640.819 494.244H633.075C632.693 492.868 631.928 491.797 630.781 491.032C629.672 490.229 628.353 489.827 626.823 489.827C624.796 489.827 623.076 490.592 621.661 492.122C620.246 493.651 619.538 495.774 619.538 498.489C619.538 501.204 620.246 503.326 621.661 504.856C623.076 506.386 624.796 507.15 626.823 507.15C628.353 507.15 629.672 506.768 630.781 506.003C631.928 505.238 632.693 504.148 633.075 502.734H640.819C640.131 505.946 638.544 508.527 636.058 510.477C633.572 512.427 630.513 513.403 626.88 513.403ZM656.284 513.403C653.837 513.403 651.829 513.02 650.261 512.255C648.693 511.452 647.527 510.401 646.762 509.101C645.997 507.8 645.615 506.366 645.615 504.799C645.615 502.16 646.647 500.018 648.712 498.374C650.777 496.73 653.875 495.908 658.005 495.908H665.232V495.219C665.232 493.269 664.678 491.835 663.569 490.917C662.46 490 661.083 489.541 659.439 489.541C657.947 489.541 656.647 489.904 655.538 490.63C654.429 491.319 653.741 492.351 653.473 493.728H646.303C646.494 491.663 647.183 489.866 648.368 488.336C649.592 486.806 651.16 485.64 653.072 484.837C654.984 483.996 657.125 483.575 659.496 483.575C663.55 483.575 666.743 484.589 669.075 486.615C671.408 488.642 672.574 491.51 672.574 495.219V512.714H666.322L665.634 508.125C664.792 509.655 663.607 510.917 662.077 511.911C660.586 512.905 658.655 513.403 656.284 513.403ZM657.947 507.667C660.051 507.667 661.676 506.978 662.823 505.602C664.009 504.225 664.754 502.523 665.06 500.496H658.808C656.858 500.496 655.462 500.86 654.621 501.586C653.779 502.275 653.359 503.135 653.359 504.168C653.359 505.277 653.779 506.137 654.621 506.749C655.462 507.361 656.571 507.667 657.947 507.667ZM691.799 513.403C689.122 513.403 686.732 512.753 684.629 511.452C682.525 510.152 680.862 508.374 679.638 506.118C678.415 503.862 677.803 501.3 677.803 498.432C677.803 495.563 678.415 493.021 679.638 490.803C680.862 488.546 682.525 486.787 684.629 485.525C686.732 484.225 689.122 483.575 691.799 483.575C693.94 483.575 695.814 483.977 697.42 484.78C699.026 485.583 700.326 486.711 701.32 488.164V471.415H708.663V512.714H702.124L701.32 508.642C700.403 509.904 699.179 511.013 697.649 511.969C696.158 512.925 694.208 513.403 691.799 513.403ZM693.347 506.978C695.718 506.978 697.649 506.194 699.141 504.626C700.67 503.02 701.435 500.975 701.435 498.489C701.435 496.003 700.67 493.977 699.141 492.409C697.649 490.803 695.718 490 693.347 490C691.015 490 689.084 490.783 687.554 492.351C686.024 493.919 685.26 495.946 685.26 498.432C685.26 500.917 686.024 502.963 687.554 504.569C689.084 506.175 691.015 506.978 693.347 506.978ZM725.088 513.403C722.64 513.403 720.633 513.02 719.065 512.255C717.497 511.452 716.33 510.401 715.566 509.101C714.801 507.8 714.418 506.366 714.418 504.799C714.418 502.16 715.451 500.018 717.516 498.374C719.581 496.73 722.678 495.908 726.808 495.908H734.036V495.219C734.036 493.269 733.481 491.835 732.372 490.917C731.263 490 729.887 489.541 728.242 489.541C726.751 489.541 725.451 489.904 724.342 490.63C723.233 491.319 722.545 492.351 722.277 493.728H715.107C715.298 491.663 715.986 489.866 717.172 488.336C718.395 486.806 719.963 485.64 721.875 484.837C723.787 483.996 725.929 483.575 728.3 483.575C732.353 483.575 735.546 484.589 737.879 486.615C740.212 488.642 741.378 491.51 741.378 495.219V512.714H735.126L734.437 508.125C733.596 509.655 732.411 510.917 730.881 511.911C729.39 512.905 727.458 513.403 725.088 513.403ZM726.751 507.667C728.854 507.667 730.479 506.978 731.627 505.602C732.812 504.225 733.558 502.523 733.864 500.496H727.611C725.661 500.496 724.265 500.86 723.424 501.586C722.583 502.275 722.162 503.135 722.162 504.168C722.162 505.277 722.583 506.137 723.424 506.749C724.265 507.361 725.374 507.667 726.751 507.667ZM774.155 513.403C771.287 513.403 768.744 512.791 766.526 511.567C764.308 510.343 762.569 508.623 761.307 506.405C760.045 504.187 759.414 501.625 759.414 498.718C759.414 495.774 760.026 493.154 761.249 490.86C762.511 488.566 764.232 486.787 766.412 485.525C768.63 484.225 771.23 483.575 774.213 483.575C777.004 483.575 779.471 484.187 781.612 485.411C783.754 486.634 785.417 488.317 786.603 490.458C787.826 492.562 788.438 494.913 788.438 497.514C788.438 497.934 788.419 498.374 788.381 498.833C788.381 499.292 788.362 499.77 788.323 500.267H766.698C766.851 502.485 767.616 504.225 768.993 505.487C770.408 506.749 772.109 507.38 774.098 507.38C775.589 507.38 776.832 507.055 777.826 506.405C778.859 505.716 779.624 504.837 780.121 503.766H787.578C787.042 505.563 786.144 507.208 784.882 508.699C783.658 510.152 782.128 511.299 780.293 512.141C778.496 512.982 776.45 513.403 774.155 513.403ZM774.213 489.541C772.415 489.541 770.828 490.057 769.452 491.089C768.075 492.084 767.196 493.613 766.813 495.678H780.981C780.867 493.804 780.178 492.313 778.916 491.204C777.654 490.095 776.086 489.541 774.213 489.541ZM793.753 512.714V484.263H800.235L800.866 488.107C801.783 486.73 802.988 485.64 804.479 484.837C806.009 483.996 807.768 483.575 809.757 483.575C814.154 483.575 817.271 485.277 819.106 488.68C820.139 487.112 821.515 485.87 823.236 484.952C824.995 484.034 826.907 483.575 828.972 483.575C832.682 483.575 835.531 484.684 837.519 486.902C839.508 489.12 840.502 492.37 840.502 496.653V512.714H833.16V497.342C833.16 494.894 832.682 493.021 831.726 491.72C830.808 490.42 829.374 489.77 827.424 489.77C825.435 489.77 823.829 490.497 822.605 491.95C821.42 493.403 820.827 495.43 820.827 498.03V512.714H813.485V497.342C813.485 494.894 813.007 493.021 812.051 491.72C811.095 490.42 809.623 489.77 807.634 489.77C805.684 489.77 804.097 490.497 802.873 491.95C801.688 493.403 801.095 495.43 801.095 498.03V512.714H793.753Z" fill="#FAFAFA"/>
<path d="M248.139 512.141V489.827H244.238V483.69H248.139V480.363C248.139 476.921 248.999 474.474 250.72 473.021C252.479 471.568 254.85 470.841 257.833 470.841H260.988V477.093H258.98C257.718 477.093 256.819 477.342 256.284 477.839C255.749 478.336 255.481 479.177 255.481 480.363V483.69H261.619V489.827H255.481V512.141H248.139ZM277.242 512.829C273.686 512.829 270.933 511.72 268.982 509.502C267.07 507.284 266.114 504.034 266.114 499.751V483.69H273.399V499.062C273.399 501.51 273.896 503.384 274.89 504.684C275.885 505.984 277.453 506.634 279.594 506.634C281.621 506.634 283.284 505.907 284.584 504.454C285.923 503.001 286.592 500.974 286.592 498.374V483.69H293.934V512.141H287.452L286.879 507.322C285.999 509.005 284.718 510.343 283.036 511.338C281.391 512.332 279.46 512.829 277.242 512.829ZM300.611 512.141V483.69H307.093L307.666 488.508C308.546 486.825 309.808 485.487 311.452 484.493C313.135 483.499 315.104 483.001 317.36 483.001C320.878 483.001 323.612 484.11 325.563 486.328C327.513 488.546 328.488 491.797 328.488 496.08V512.141H321.146V496.768C321.146 494.321 320.649 492.447 319.654 491.147C318.66 489.846 317.112 489.196 315.008 489.196C312.943 489.196 311.242 489.923 309.903 491.376C308.603 492.829 307.953 494.856 307.953 497.456V512.141H300.611ZM348.587 512.829C345.681 512.829 343.119 512.198 340.901 510.936C338.683 509.674 336.924 507.915 335.624 505.659C334.362 503.403 333.731 500.821 333.731 497.915C333.731 495.009 334.362 492.428 335.624 490.171C336.924 487.915 338.683 486.156 340.901 484.894C343.119 483.632 345.681 483.001 348.587 483.001C352.22 483.001 355.279 483.957 357.765 485.869C360.25 487.743 361.837 490.344 362.526 493.67H354.782C354.4 492.294 353.635 491.223 352.488 490.458C351.379 489.655 350.059 489.254 348.53 489.254C346.503 489.254 344.782 490.019 343.367 491.548C341.952 493.078 341.245 495.2 341.245 497.915C341.245 500.63 341.952 502.753 343.367 504.282C344.782 505.812 346.503 506.577 348.53 506.577C350.059 506.577 351.379 506.194 352.488 505.429C353.635 504.665 354.4 503.575 354.782 502.16H362.526C361.837 505.372 360.25 507.953 357.765 509.904C355.279 511.854 352.22 512.829 348.587 512.829ZM372.14 479.273C370.801 479.273 369.692 478.871 368.813 478.068C367.972 477.265 367.551 476.252 367.551 475.028C367.551 473.805 367.972 472.81 368.813 472.046C369.692 471.242 370.801 470.841 372.14 470.841C373.478 470.841 374.568 471.242 375.409 472.046C376.289 472.81 376.729 473.805 376.729 475.028C376.729 476.252 376.289 477.265 375.409 478.068C374.568 478.871 373.478 479.273 372.14 479.273ZM368.469 512.141V483.69H375.811V512.141H368.469ZM396.266 512.829C393.512 512.829 391.027 512.198 388.809 510.936C386.629 509.674 384.889 507.934 383.589 505.716C382.327 503.46 381.696 500.86 381.696 497.915C381.696 494.971 382.346 492.389 383.646 490.171C384.947 487.915 386.687 486.156 388.866 484.894C391.084 483.632 393.57 483.001 396.323 483.001C399.038 483.001 401.486 483.632 403.665 484.894C405.883 486.156 407.623 487.915 408.885 490.171C410.185 492.389 410.835 494.971 410.835 497.915C410.835 500.86 410.185 503.46 408.885 505.716C407.623 507.934 405.883 509.674 403.665 510.936C401.447 512.198 398.981 512.829 396.266 512.829ZM396.266 506.462C398.178 506.462 399.841 505.754 401.256 504.34C402.671 502.886 403.378 500.745 403.378 497.915C403.378 495.085 402.671 492.963 401.256 491.548C399.841 490.095 398.197 489.368 396.323 489.368C394.373 489.368 392.69 490.095 391.275 491.548C389.899 492.963 389.21 495.085 389.21 497.915C389.21 500.745 389.899 502.886 391.275 504.34C392.69 505.754 394.354 506.462 396.266 506.462ZM416.54 512.141V483.69H423.021L423.595 488.508C424.474 486.825 425.736 485.487 427.381 484.493C429.063 483.499 431.033 483.001 433.289 483.001C436.807 483.001 439.541 484.11 441.491 486.328C443.442 488.546 444.417 491.797 444.417 496.08V512.141H437.075V496.768C437.075 494.321 436.578 492.447 435.583 491.147C434.589 489.846 433.04 489.196 430.937 489.196C428.872 489.196 427.17 489.923 425.832 491.376C424.532 492.829 423.882 494.856 423.882 497.456V512.141H416.54ZM460.386 512.829C457.939 512.829 455.931 512.446 454.363 511.682C452.795 510.879 451.629 509.827 450.864 508.527C450.099 507.227 449.717 505.793 449.717 504.225C449.717 501.586 450.749 499.445 452.814 497.8C454.879 496.156 457.977 495.334 462.107 495.334H469.334V494.646C469.334 492.695 468.78 491.261 467.671 490.344C466.562 489.426 465.185 488.967 463.541 488.967C462.049 488.967 460.749 489.33 459.64 490.057C458.531 490.745 457.843 491.778 457.575 493.154H450.405C450.596 491.089 451.285 489.292 452.47 487.762C453.694 486.233 455.262 485.066 457.174 484.263C459.086 483.422 461.227 483.001 463.598 483.001C467.652 483.001 470.845 484.015 473.177 486.042C475.51 488.068 476.676 490.936 476.676 494.646V512.141H470.424L469.736 507.552C468.894 509.081 467.709 510.343 466.179 511.338C464.688 512.332 462.757 512.829 460.386 512.829ZM462.049 507.093C464.153 507.093 465.778 506.405 466.925 505.028C468.11 503.651 468.856 501.95 469.162 499.923H462.91C460.959 499.923 459.564 500.286 458.722 501.013C457.881 501.701 457.461 502.561 457.461 503.594C457.461 504.703 457.881 505.563 458.722 506.175C459.564 506.787 460.673 507.093 462.049 507.093ZM482.822 512.141V470.841H490.165V512.141H482.822Z" fill="url(#paint3_linear_1197:868)"/>
<path d="M869.779 512.141V471.988H884.521C887.733 471.988 890.372 472.543 892.437 473.652C894.54 474.722 896.108 476.195 897.14 478.068C898.173 479.904 898.689 481.95 898.689 484.206C898.689 486.653 898.039 488.89 896.739 490.917C895.477 492.944 893.488 494.416 890.773 495.334L899.091 512.141H890.659L883.202 496.309H877.122V512.141H869.779ZM877.122 490.917H884.062C886.51 490.917 888.307 490.324 889.454 489.139C890.601 487.954 891.175 486.386 891.175 484.435C891.175 482.523 890.601 480.994 889.454 479.847C888.345 478.699 886.529 478.126 884.005 478.126H877.122V490.917ZM916.573 512.829C913.705 512.829 911.162 512.217 908.944 510.993C906.726 509.77 904.986 508.049 903.724 505.831C902.462 503.613 901.831 501.051 901.831 498.145C901.831 495.2 902.443 492.581 903.667 490.286C904.928 487.992 906.649 486.214 908.829 484.952C911.047 483.651 913.647 483.001 916.63 483.001C919.422 483.001 921.888 483.613 924.029 484.837C926.171 486.061 927.834 487.743 929.02 489.885C930.244 491.988 930.855 494.34 930.855 496.94C930.855 497.361 930.836 497.8 930.798 498.259C930.798 498.718 930.779 499.196 930.741 499.693H909.116C909.269 501.911 910.034 503.651 911.41 504.913C912.825 506.175 914.527 506.806 916.515 506.806C918.007 506.806 919.249 506.481 920.244 505.831C921.276 505.143 922.041 504.263 922.538 503.192H929.995C929.46 504.99 928.561 506.634 927.299 508.125C926.075 509.578 924.546 510.726 922.71 511.567C920.913 512.408 918.867 512.829 916.573 512.829ZM916.63 488.967C914.833 488.967 913.246 489.483 911.869 490.516C910.492 491.51 909.613 493.04 909.23 495.104H923.399C923.284 493.231 922.595 491.739 921.334 490.63C920.072 489.521 918.504 488.967 916.63 488.967ZM945.979 512.829C943.531 512.829 941.524 512.446 939.956 511.682C938.388 510.879 937.222 509.827 936.457 508.527C935.692 507.227 935.31 505.793 935.31 504.225C935.31 501.586 936.342 499.445 938.407 497.8C940.472 496.156 943.57 495.334 947.7 495.334H954.927V494.646C954.927 492.695 954.373 491.261 953.264 490.344C952.155 489.426 950.778 488.967 949.134 488.967C947.642 488.967 946.342 489.33 945.233 490.057C944.124 490.745 943.436 491.778 943.168 493.154H935.998C936.189 491.089 936.878 489.292 938.063 487.762C939.287 486.233 940.855 485.066 942.767 484.263C944.679 483.422 946.82 483.001 949.191 483.001C953.245 483.001 956.438 484.015 958.77 486.042C961.103 488.068 962.269 490.936 962.269 494.646V512.141H956.017L955.329 507.552C954.487 509.081 953.302 510.343 951.772 511.338C950.281 512.332 948.35 512.829 945.979 512.829ZM947.642 507.093C949.746 507.093 951.371 506.405 952.518 505.028C953.703 503.651 954.449 501.95 954.755 499.923H948.503C946.552 499.923 945.157 500.286 944.315 501.013C943.474 501.701 943.053 502.561 943.053 503.594C943.053 504.703 943.474 505.563 944.315 506.175C945.157 506.787 946.266 507.093 947.642 507.093ZM982.354 512.829C979.448 512.829 976.886 512.198 974.668 510.936C972.45 509.674 970.691 507.915 969.39 505.659C968.129 503.403 967.498 500.821 967.498 497.915C967.498 495.009 968.129 492.428 969.39 490.171C970.691 487.915 972.45 486.156 974.668 484.894C976.886 483.632 979.448 483.001 982.354 483.001C985.987 483.001 989.046 483.957 991.532 485.869C994.017 487.743 995.604 490.344 996.293 493.67H988.549C988.166 492.294 987.402 491.223 986.254 490.458C985.146 489.655 983.826 489.254 982.297 489.254C980.27 489.254 978.549 490.019 977.134 491.548C975.719 493.078 975.012 495.2 975.012 497.915C975.012 500.63 975.719 502.753 977.134 504.282C978.549 505.812 980.27 506.577 982.297 506.577C983.826 506.577 985.146 506.194 986.254 505.429C987.402 504.665 988.166 503.575 988.549 502.16H996.293C995.604 505.372 994.017 507.953 991.532 509.904C989.046 511.854 985.987 512.829 982.354 512.829ZM1014.23 512.141C1011.25 512.141 1008.86 511.414 1007.06 509.961C1005.27 508.508 1004.37 505.927 1004.37 502.217V489.827H999.492V483.69H1004.37L1005.23 476.061H1011.71V483.69H1019.4V489.827H1011.71V502.275C1011.71 503.651 1012 504.607 1012.57 505.143C1013.18 505.64 1014.21 505.888 1015.67 505.888H1019.22V512.141H1014.23Z" fill="url(#paint4_linear_1197:868)"/>
<defs>
<filter id="filter0_d_1197:868" x="470.631" y="158.947" width="317.688" height="282.475" filterUnits="userSpaceOnUse" color-interpolation-filters="sRGB">
<feFlood flood-opacity="0" result="BackgroundImageFix"/>
<feColorMatrix in="SourceAlpha" type="matrix" values="0 0 0 0 0 0 0 0 0 0 0 0 0 0 0 0 0 0 127 0" result="hardAlpha"/>
<feOffset dy="8.05289"/>
<feGaussianBlur stdDeviation="8.05289"/>
<feColorMatrix type="matrix" values="0 0 0 0 0.988235 0 0 0 0 0 0 0 0 0 0.666667 0 0 0 0.06 0"/>
<feBlend mode="normal" in2="BackgroundImageFix" result="effect1_dropShadow_1197:868"/>
<feBlend mode="normal" in="SourceGraphic" in2="effect1_dropShadow_1197:868" result="shape"/>
</filter>
<linearGradient id="paint0_linear_1197:868" x1="629.388" y1="122.334" x2="629.388" y2="463.011" gradientUnits="userSpaceOnUse">
<stop stop-color="#DF64BD"/>
<stop offset="0.353103" stop-color="#9A3F81" stop-opacity="0.69"/>
<stop offset="0.703125" stop-color="#28174A" stop-opacity="0.75"/>
<stop offset="0.90625" stop-opacity="0"/>
</linearGradient>
<linearGradient id="paint1_linear_1197:868" x1="629.388" y1="122.334" x2="629.388" y2="463.011" gradientUnits="userSpaceOnUse">
<stop stop-color="#DF64BD"/>
<stop offset="0.353103" stop-color="#9A3F81" stop-opacity="0.69"/>
<stop offset="0.703125" stop-color="#28174A" stop-opacity="0.75"/>
<stop offset="0.90625" stop-opacity="0"/>
</linearGradient>
<linearGradient id="paint2_linear_1197:868" x1="629.388" y1="122.334" x2="629.388" y2="463.011" gradientUnits="userSpaceOnUse">
<stop stop-color="#DF64BD"/>
<stop offset="0.353103" stop-color="#9A3F81" stop-opacity="0.69"/>
<stop offset="0.703125" stop-color="#28174A" stop-opacity="0.75"/>
<stop offset="0.90625" stop-opacity="0"/>
</linearGradient>
<linearGradient id="paint3_linear_1197:868" x1="368.431" y1="439.784" x2="368.431" y2="556.91" gradientUnits="userSpaceOnUse">
<stop stop-color="#FF89DE"/>
<stop offset="0.353103" stop-color="#FF68D5"/>
<stop offset="0.703125" stop-color="#9361FF"/>
<stop offset="1" stop-color="#743AF0"/>
</linearGradient>
<linearGradient id="paint4_linear_1197:868" x1="943.874" y1="439.784" x2="943.874" y2="556.91" gradientUnits="userSpaceOnUse">
<stop stop-color="#FF89DE"/>
<stop offset="0.353103" stop-color="#FF68D5"/>
<stop offset="0.703125" stop-color="#9361FF"/>
<stop offset="1" stop-color="#743AF0"/>
</linearGradient>
</defs>
</svg>
